# xmcd
#
# Track frame offsets:
#	150
#	16697
#	31002
#	48570
#	64615
#	83444
#	101419
#	120695
#	136386
#	151646
#	168612
#	186489
#	199019
#	227227
#	247206
#	264915
#	280474
#	296470
#	318056
#	335433
#
# Disc length: 4705 seconds
#
# Revision: 0
# Processed by: cddbd v1.5.1PL0 Copyright (c) Steve Scherf et al.
# Submitted via: audiograbber 1.83.01
#
DISCID=0f125f14
DTITLE=Various Artist - Radio Reliz 73. (2005)
DYEAR=1900
DGENRE=
TTITLE0=Дима Билан. - Ты должна рядом быть.
TTITLE1=Руслан Масюков. - Ариведерчи малышка.
TTITLE2=Валерий Леонтьев. - Ягодка.
TTITLE3=Александр Буйнов. - Все дела.
TTITLE4=Евгения Власова. - О тебе.
TTITLE5=SKY. - Под запретом.
TTITLE6=Lindsay Lohan feat. Jabba and Timbaland. - Rumors. (Dj Cenga Rmx)
TTITLE7=50 Cent. - Candy Shop. (Feat. Olivia)
TTITLE8=Mariah Carey. - It`s Like That.
TTITLE9=Natalie Imbruglia. - Shiver.
TTITLE10=Juliet. - Avalon. (Album Version Radio Edit)
TTITLE11=Beck. - Black Tambourine.
TTITLE12=Three Of A Kind. - Babycakes. (2-Step Mix)
TTITLE13=Anastacia. - Heavy On My Heart.
TTITLE14=Mellow. - Drifting Out of Sight.
TTITLE15=Amel Bent. - Ma Philosophie.
TTITLE16=Kylie Minogue. - Giving You Up. (Single Version)
TTITLE17=Daft Punk. - Robot Rock.
TTITLE18=Garbage. - Why Do You Love Me.
TTITLE19=Green Day. - Holiday.
EXTD=
EXTT0=
EXTT1=
EXTT2=
EXTT3=
EXTT4=
EXTT5=
EXTT6=
EXTT7=
EXTT8=
EXTT9=
EXTT10=
EXTT11=
EXTT12=
EXTT13=
EXTT14=
EXTT15=
EXTT16=
EXTT17=
EXTT18=
EXTT19=
PLAYORDER=
